PathFileType	4	(X/Y/Z)	c:/Users/goper/Files/vsCode/490R/osim_files/A01/A01_Slow_05.trc
DataRate	CameraRate	NumFrames	NumMarkers	Units                	OrigDataRate	OrigDataStartFrame	OrigNumFrames
120.00	120.00	9	36	mm	120.0	445	1184
                Frame#	Time	Mobility_markerset:LPSIS			Mobility_markerset:LASIS			Mobility_markerset:LTH1			Mobility_markerset:LTH2			Mobility_markerset:LTH3			Mobility_markerset:LTH4			Mobility_markerset:LLFE			Mobility_markerset:LMFE			Mobility_markerset:LSH1			Mobility_markerset:LSH2			Mobility_markerset:LSH3			Mobility_markerset:LSH4			Mobility_markerset:LLMAL			Mobility_markerset:LMMAL			Mobility_markerset:LCAL			Mobility_markerset:LMTP5			Mobility_markerset:LTOE			Mobility_markerset:LMTP1			Mobility_markerset:RPSIS			Mobility_markerset:RASIS			Mobility_markerset:RTH1			Mobility_markerset:RTH2			Mobility_markerset:RTH3			Mobility_markerset:RTH4			Mobility_markerset:RLFE			Mobility_markerset:RMFE			Mobility_markerset:RSH1			Mobility_markerset:RSH2			Mobility_markerset:RSH3			Mobility_markerset:RSH4			Mobility_markerset:RLMAL			Mobility_markerset:RMMAL			Mobility_markerset:RCAL			Mobility_markerset:RMTP1			Mobility_markerset:RTOE			Mobility_markerset:RMTP5		
		X1	Y1	Z1	X2	Y2	Z2	X3	Y3	Z3	X4	Y4	Z4	X5	Y5	Z5	X6	Y6	Z6	X7	Y7	Z7	X8	Y8	Z8	X9	Y9	Z9	X10	Y10	Z10	X11	Y11	Z11	X12	Y12	Z12	X13	Y13	Z13	X14	Y14	Z14	X15	Y15	Z15	X16	Y16	Z16	X17	Y17	Z17	X18	Y18	Z18	X19	Y19	Z19	X20	Y20	Z20	X21	Y21	Z21	X22	Y22	Z22	X23	Y23	Z23	X24	Y24	Z24	X25	Y25	Z25	X26	Y26	Z26	X27	Y27	Z27	X28	Y28	Z28	X29	Y29	Z29	X30	Y30	Z30	X31	Y31	Z31	X32	Y32	Z32	X33	Y33	Z33	X34	Y34	Z34	X35	Y35	Z35	X36	Y36	Z36

445	3.70000	0.00000	0.00000	0.00000	0.00000	0.00000	0.00000	0.00000	0.00000	0.00000	0.00000	0.00000	0.00000	0.00000	0.00000	0.00000	0.00000	0.00000	0.00000	0.00000	0.00000	0.00000	0.00000	0.00000	0.00000	0.00000	0.00000	0.00000	0.00000	0.00000	0.00000	0.00000	0.00000	0.00000	0.00000	0.00000	0.00000	0.00000	0.00000	0.00000	0.00000	0.00000	0.00000	0.00000	0.00000	0.00000	0.00000	0.00000	0.00000	0.00000	0.00000	0.00000	0.00000	0.00000	0.00000	0.00000	0.00000	0.00000	0.00000	0.00000	0.00000	0.00000	0.00000	0.00000	0.00000	0.00000	0.00000	0.00000	0.00000	0.00000	0.00000	0.00000	0.00000	0.00000	0.00000	0.00000	0.00000	0.00000	0.00000	0.00000	0.00000	0.00000	0.00000	0.00000	0.00000	0.00000	0.00000	0.00000	0.00000	0.00000	0.00000	0.00000	0.00000	0.00000	0.00000	0.00000	0.00000	0.00000	0.00000	0.00000	0.00000	0.00000	0.00000	0.00000	0.00000	0.00000	0.00000	0.00000	0.00000
446	3.70833	0.00000	0.00000	0.00000	0.00000	0.00000	0.00000	0.00000	0.00000	0.00000	0.00000	0.00000	0.00000	0.00000	0.00000	0.00000	0.00000	0.00000	0.00000	0.00000	0.00000	0.00000	0.00000	0.00000	0.00000	0.00000	0.00000	0.00000	0.00000	0.00000	0.00000	0.00000	0.00000	0.00000	0.00000	0.00000	0.00000	0.00000	0.00000	0.00000	0.00000	0.00000	0.00000	0.00000	0.00000	0.00000	0.00000	0.00000	0.00000	0.00000	0.00000	0.00000	0.00000	0.00000	0.00000	0.00000	0.00000	0.00000	0.00000	0.00000	0.00000	0.00000	0.00000	0.00000	0.00000	0.00000	0.00000	0.00000	0.00000	0.00000	0.00000	0.00000	0.00000	0.00000	0.00000	0.00000	0.00000	0.00000	0.00000	0.00000	0.00000	0.00000	0.00000	0.00000	0.00000	0.00000	0.00000	0.00000	0.00000	0.00000	0.00000	0.00000	0.00000	0.00000	0.00000	0.00000	0.00000	0.00000	0.00000	0.00000	0.00000	0.00000	0.00000	0.00000	0.00000	0.00000	0.00000	0.00000	0.00000
447	3.71667	0.00000	0.00000	0.00000	0.00000	0.00000	0.00000	0.00000	0.00000	0.00000	0.00000	0.00000	0.00000	0.00000	0.00000	0.00000	0.00000	0.00000	0.00000	0.00000	0.00000	0.00000	0.00000	0.00000	0.00000	0.00000	0.00000	0.00000	0.00000	0.00000	0.00000	0.00000	0.00000	0.00000	0.00000	0.00000	0.00000	0.00000	0.00000	0.00000	0.00000	0.00000	0.00000	0.00000	0.00000	0.00000	0.00000	0.00000	0.00000	0.00000	0.00000	0.00000	0.00000	0.00000	0.00000	0.00000	0.00000	0.00000	0.00000	0.00000	0.00000	0.00000	0.00000	0.00000	0.00000	0.00000	0.00000	0.00000	0.00000	0.00000	0.00000	0.00000	0.00000	0.00000	0.00000	0.00000	0.00000	0.00000	0.00000	0.00000	0.00000	0.00000	0.00000	0.00000	0.00000	0.00000	0.00000	0.00000	0.00000	0.00000	0.00000	0.00000	0.00000	0.00000	0.00000	0.00000	0.00000	0.00000	0.00000	0.00000	0.00000	0.00000	0.00000	0.00000	0.00000	0.00000	0.00000	0.00000	0.00000
448	3.72500	0.00000	0.00000	0.00000	0.00000	0.00000	0.00000	0.00000	0.00000	0.00000	0.00000	0.00000	0.00000	0.00000	0.00000	0.00000	0.00000	0.00000	0.00000	0.00000	0.00000	0.00000	0.00000	0.00000	0.00000	0.00000	0.00000	0.00000	0.00000	0.00000	0.00000	0.00000	0.00000	0.00000	0.00000	0.00000	0.00000	0.00000	0.00000	0.00000	0.00000	0.00000	0.00000	0.00000	0.00000	0.00000	0.00000	0.00000	0.00000	0.00000	0.00000	0.00000	0.00000	0.00000	0.00000	0.00000	0.00000	0.00000	0.00000	0.00000	0.00000	0.00000	0.00000	0.00000	0.00000	0.00000	0.00000	0.00000	0.00000	0.00000	0.00000	0.00000	0.00000	0.00000	0.00000	0.00000	0.00000	0.00000	0.00000	0.00000	0.00000	0.00000	0.00000	0.00000	0.00000	0.00000	0.00000	0.00000	0.00000	0.00000	0.00000	0.00000	0.00000	0.00000	0.00000	0.00000	0.00000	0.00000	0.00000	0.00000	0.00000	0.00000	0.00000	0.00000	0.00000	0.00000	0.00000	0.00000	0.00000
449	3.73333	1137.91528	1021.30243	346.63321	897.33392	1005.82544	418.18564	880.20013	689.47949	486.58441	855.59418	649.84119	476.53699	829.42004	718.02173	474.65451	813.09814	676.31274	463.63904	779.84393	548.23639	440.85916	773.15906	548.23279	301.39252	758.43060	379.55826	440.84506	742.01740	336.16101	447.12131	699.47406	396.43564	435.61902	692.76447	350.88565	440.03519	641.27008	104.85857	442.40878	654.17517	93.75896	359.85248	707.47711	48.16342	409.56512	491.93063	106.49516	453.26810	479.00854	132.02882	382.16635	500.00754	106.79069	352.32620	1139.48120	1024.21240	245.65575	910.38513	972.51038	155.97726	1100.64612	663.83594	105.37548	1099.70740	621.14795	114.90675	1037.73047	658.61041	110.56428	1046.95288	617.34277	118.05583	1090.17664	476.77478	165.17986	1087.24939	495.01193	284.36935	1246.33289	321.88776	154.32523	1260.17456	278.96515	156.54340	1190.22449	297.35992	157.93677	1210.41650	256.89761	160.40668	1307.52063	107.78328	194.09741	1284.77771	119.84266	280.75854	1370.01855	86.57222	241.22040	1171.74756	39.64335	282.42401	1132.49878	51.20094	240.11247	1188.17908	35.89133	170.67447
450	3.74167	1126.92908	1019.80902	348.54745	886.20172	1004.45502	420.01688	868.31573	688.67572	487.25104	843.77301	649.29694	477.28601	817.83636	716.88379	475.34979	801.73663	674.96631	464.43195	769.48059	546.63458	440.31445	765.21051	545.99310	301.39908	750.91614	377.56900	441.13953	735.67975	334.63950	447.59705	691.78137	393.65918	434.96902	685.80493	347.98520	439.34253	638.45087	101.38085	442.20312	653.36749	91.31062	360.81924	706.84021	47.43400	410.93076	488.83365	99.89314	450.18298	476.60025	123.82857	379.82196	497.72488	100.11170	349.31665	1128.75244	1022.62891	247.57953	899.99249	970.36987	157.00725	1092.20508	662.79810	107.20811	1091.34351	620.09131	116.70776	1029.26270	657.26550	111.79173	1038.65820	615.99445	119.28106	1082.06873	475.39810	166.49518	1078.55872	493.34399	285.58380	1240.89636	323.09213	155.04384	1255.51465	280.43509	157.13855	1185.14111	297.59525	158.88780	1206.18115	257.44785	161.10396	1306.18530	109.50340	194.12679	1283.25610	121.53889	280.88055	1369.00574	89.71748	241.15906	1171.15637	40.06021	282.43219	1132.17273	50.88991	240.07957	1188.11011	36.02551	170.76817
451	3.75000	1115.86926	1018.47498	350.36218	874.68347	1003.15063	421.83899	857.08490	687.69305	487.96890	833.22211	647.76526	477.94247	806.50079	715.71802	476.06049	790.36987	673.67285	465.56616	760.10168	545.75323	440.07236	758.71661	544.24329	300.94687	744.52545	377.40771	442.83951	728.85535	333.55438	448.41068	684.22461	391.58124	434.61685	678.88135	346.20544	439.19009	634.27588	98.79687	443.30090	650.69928	89.34819	362.29321	704.73584	47.06828	412.88934	485.21277	94.84607	448.60083	474.04822	118.76252	377.90506	495.75391	95.65976	347.89438	1117.83228	1021.09186	249.40846	888.69855	967.82837	159.38693	1084.10742	661.98004	108.70153	1082.66028	618.99902	118.48344	1020.55481	655.93500	113.09364	1029.94617	614.68958	120.59116	1073.84912	474.09750	167.74899	1069.32739	491.69348	286.66678	1235.21899	324.48804	155.89757	1250.55420	282.09982	157.79895	1180.08716	298.04904	159.57451	1201.44092	257.98993	162.00092	1304.52112	111.61094	194.16121	1281.45190	123.47524	280.87723	1367.76648	93.29465	241.11366	1170.56091	40.60546	282.46725	1131.72852	50.83881	239.89064	1188.00854	36.18494	170.91092
452	3.75833	1104.69446	1017.25696	352.15576	862.95398	1002.10455	423.71423	846.04407	686.69995	489.07095	822.58319	646.70886	479.22110	795.42657	714.57642	476.93558	779.16345	672.38702	466.46313	751.70813	545.24573	440.19397	751.70947	542.96033	301.26724	737.42017	376.64111	443.36969	722.64301	332.79205	448.98892	677.47192	390.25943	434.50763	672.63489	344.89389	439.10944	630.44733	97.13474	443.95804	648.20880	88.14888	363.06134	701.81885	47.00448	413.92517	481.52383	90.62929	447.84943	470.37747	115.72339	376.88138	493.40359	92.59610	347.31717	1106.85815	1019.80109	251.18858	878.05878	965.78235	160.49318	1075.05505	660.98267	110.63614	1073.71436	618.01514	120.28826	1011.52869	654.67267	114.47847	1021.12848	613.54266	121.90629	1065.28650	472.86987	168.92914	1059.85718	490.46671	287.57834	1229.41589	326.11011	156.76064	1245.52710	284.02554	158.50789	1174.73535	298.57559	160.50992	1197.19202	259.26981	162.42903	1302.72778	114.40019	194.07246	1279.35254	125.75547	280.89291	1366.25415	97.20782	241.00911	1169.88318	41.24894	282.44766	1131.39246	50.76691	239.74762	1187.83716	36.39085	171.07314
453	3.76667	1093.38367	1016.21777	353.90411	851.01105	1001.34479	425.45825	835.57983	685.49438	490.13184	811.83435	645.37543	480.51440	784.91504	713.36224	477.84448	768.63739	671.11011	467.60284	743.87720	544.86719	440.83841	744.19177	542.60699	301.81952	731.64581	376.07327	443.76965	719.26398	332.97131	449.86783	671.40112	388.99762	434.79587	667.15558	343.60898	439.41165	627.91583	95.72927	443.81046	646.23077	86.94167	362.94955	700.23438	46.88429	414.03268	479.23975	86.75999	447.43057	466.82532	112.37992	376.04321	491.36002	88.60281	347.13559	1095.64246	1018.59784	252.95239	867.04517	963.85474	161.64598	1065.66687	660.06885	112.51610	1064.43506	617.05255	122.03054	1002.30463	653.63806	115.75974	1011.95923	612.43915	123.18768	1056.53296	471.80716	170.06676	1050.28394	489.15787	288.63007	1223.41406	327.95792	157.65088	1240.41821	286.23831	159.23581	1169.31262	299.38269	161.06760	1192.39587	260.49313	162.94965	1301.11572	118.07610	193.66753	1277.18457	127.98642	280.90799	1364.61108	101.54815	240.89586	1169.30273	42.54374	284.39722	1131.13000	50.74802	239.59349	1187.68469	36.61664	171.22600
